<svg display="block" role="presentation" viewBox="0 0 24 24" xmlns="http://www.w3.org/2000/svg"><g d="M 3.069 23.984 C 1.374 23.984 0 22.61 0 20.915 L 0 17.569 C 0 15.874 1.374 14.5 3.069 14.5 L 3.069 14.5 C 4.764 14.5 6.138 15.874 6.138 17.569 L 6.138 20.915 C 6.138 22.61 4.764 23.984 3.069 23.984 Z M 3.05 6.101 C 1.366 6.101 0 4.735 0 3.051 L 0 3.05 C 0 1.366 1.366 0 3.05 0 L 3.088 0 C 4.772 0 6.138 1.366 6.138 3.05 L 6.138 3.051 C 6.138 4.735 4.772 6.101 3.088 6.101 Z M 12.069 23.94 C 10.374 23.94 9 22.566 9 20.871 L 9 10.069 C 9 8.374 10.374 7 12.069 7 L 12.069 7 C 13.764 7 15.138 8.374 15.138 10.069 L 15.138 20.871 C 15.138 22.566 13.764 23.94 12.069 23.94 Z M 21.069 24 C 19.374 24 18 22.626 18 20.931 L 18 3.069 C 18 1.374 19.374 0 21.069 0 L 21.069 0 C 22.764 0 24.138 1.374 24.138 3.069 L 24.138 20.931 C 24.138 22.626 22.764 24 21.069 24 Z" fill="transparent" height="24px" id="ddKwauhu_" width="24.138000000000005px"><path d="M 3.069 9.484 C 1.374 9.484 0 8.11 0 6.415 L 0 3.069 C 0 1.374 1.374 0 3.069 0 L 3.069 0 C 4.764 0 6.138 1.374 6.138 3.069 L 6.138 6.415 C 6.138 8.11 4.764 9.484 3.069 9.484 Z" fill="rgba(255, 255, 255, 0.7)" height="9.484000000000002px" id="D08gkkLER" transform="translate(0 14.5)" width="6.138000000000005px"/><path d="M 3.05 6.101 C 1.366 6.101 0 4.735 0 3.051 L 0 3.05 C 0 1.366 1.366 0 3.05 0 L 3.088 0 C 4.772 0 6.138 1.366 6.138 3.05 L 6.138 3.051 C 6.138 4.735 4.772 6.101 3.088 6.101 Z" fill="rgba(255, 255, 255, 0.4)" height="6.100999999999999px" id="s9FLhtbYH" width="6.138000000000005px"/><path d="M 3.069 16.94 C 1.374 16.94 0 15.566 0 13.871 L 0 3.069 C 0 1.374 1.374 0 3.069 0 L 3.069 0 C 4.764 0 6.138 1.374 6.138 3.069 L 6.138 13.871 C 6.138 15.566 4.764 16.94 3.069 16.94 Z" fill="rgba(255, 255, 255, 0.8)" height="16.939999999999998px" id="xyDeAQVPu" transform="translate(9 7)" width="6.138000000000005px"/><path d="M 3.069 24 C 1.374 24 0 22.626 0 20.931 L 0 3.069 C 0 1.374 1.374 0 3.069 0 L 3.069 0 C 4.764 0 6.138 1.374 6.138 3.069 L 6.138 20.931 C 6.138 22.626 4.764 24 3.069 24 Z" fill="rgba(255, 255, 255, 0.9)" height="24px" id="ZipQPzMaV" transform="translate(18 0)" width="6.138000000000005px"/></g></svg>